<svg width="64" height="64" viewBox="0 0 64 64" fill="none" xmlns="http://www.w3.org/2000/svg">
<path d="M33.3601 10.1864C33.3014 10.2131 33.1628 10.2344 33.0508 10.2344C32.9388 10.2398 32.7361 10.2718 32.5974 10.3144C32.4588 10.3571 32.2134 10.4158 32.0534 10.4531C31.6961 10.5331 31.6374 10.5811 31.5094 10.8584C31.3441 11.2371 31.4454 11.5784 32.0641 12.6931C32.2934 13.1091 32.4694 13.3331 32.9868 13.8611C34.0161 14.9171 34.7681 15.5198 40.7734 20.1438C42.6828 21.6104 45.1521 23.5144 46.2668 24.3784C47.3868 25.2424 49.0241 26.4958 49.9148 27.1731L51.5308 28.3998L51.1681 28.4371C50.9654 28.4584 49.8881 28.5384 48.7734 28.6131C47.6588 28.6878 45.1734 28.8798 43.2534 29.0291C40.1228 29.2851 39.6588 29.3064 38.8001 29.2798C38.2721 29.2638 34.4321 29.2424 30.2668 29.2318C26.1014 29.2211 20.8001 29.1998 18.4801 29.1731C14.5388 29.1358 14.2028 29.1251 13.2801 29.0078C12.4214 28.9011 12.0534 28.8851 10.4534 28.8851C9.08277 28.8851 8.54943 28.9011 8.37343 28.9544C8.0801 29.0398 6.75743 29.6904 6.32543 29.9624C6.15477 30.0744 5.98943 30.2184 5.96277 30.2931C5.86677 30.5598 5.89877 31.5198 6.02143 31.9731C6.08543 32.2078 6.1601 32.4211 6.18143 32.4531C6.2081 32.4798 6.3521 32.7464 6.50677 33.0398C6.77877 33.5571 6.8961 33.7011 7.34943 34.0638C7.61077 34.2718 7.6641 34.2771 7.90943 34.1118C8.29877 33.8451 9.16277 33.7704 12.5601 33.7064C17.0134 33.6264 19.6428 33.5518 21.2001 33.4664C26.5548 33.1731 28.0588 33.1038 31.2801 33.0131C34.1014 32.9331 39.6961 32.8478 40.2401 32.8798C41.3068 32.9438 45.7601 33.0664 47.0134 33.0664C48.3894 33.0664 48.6294 33.0398 48.8268 32.8531C48.9334 32.7518 49.0294 32.7464 50.7521 32.7144L52.5601 32.6878L52.4268 32.8051C52.3521 32.8691 51.8134 33.3064 51.2268 33.7758C49.1414 35.4451 47.1574 37.2051 44.8801 39.4078C44.5281 39.7491 43.6641 40.5811 42.9601 41.2531C42.2561 41.9251 41.3814 42.7678 41.0134 43.1198C37.8401 46.1811 36.8214 47.1891 35.7068 48.3304C35.0028 49.0558 34.3254 49.7171 34.2081 49.8078C34.0641 49.9091 33.9308 50.0744 33.8348 50.2718C33.6908 50.5651 33.6908 50.5864 33.7494 50.9918C33.8081 51.4131 33.9521 51.7544 34.3414 52.3998C34.4481 52.5758 34.6188 52.8851 34.7148 53.0824C34.8428 53.3331 34.9654 53.4931 35.1041 53.5891C35.2214 53.6691 35.4721 53.8611 35.6588 54.0104C35.9468 54.2451 36.0321 54.2878 36.1494 54.2611C36.3681 54.2131 36.6668 53.9998 36.8374 53.7811C36.9174 53.6691 37.7921 52.7784 38.7788 51.7918C40.3841 50.1918 41.2321 49.3064 44.4321 45.9198C44.9174 45.4078 45.9841 44.2771 46.8054 43.4131C49.9414 40.0958 51.1094 38.7571 53.4241 35.8398C55.1148 33.7011 55.6481 33.0504 55.9788 32.7198C56.4961 32.1918 57.7654 30.6238 57.9948 30.2238C58.1174 30.0104 58.1334 29.9304 58.1068 29.7544C58.0854 29.6371 58.0108 29.4718 57.9414 29.3918C57.8721 29.3064 57.8134 29.2104 57.8134 29.1838C57.8134 29.1091 56.5761 27.7864 56.4374 27.7118C56.3788 27.6798 56.2134 27.5464 56.0694 27.4131C54.7361 26.1651 51.4188 23.4451 45.8881 19.0664C45.3334 18.6291 43.4668 17.1411 41.7334 15.7598C36.9921 11.9731 36.2401 11.4078 35.3068 10.9384C35.0294 10.7944 34.6828 10.6184 34.5388 10.5384C34.3948 10.4638 34.2348 10.3998 34.1868 10.3998C34.1388 10.3998 34.0268 10.3411 33.9414 10.2664C33.7814 10.1278 33.5628 10.1011 33.3601 10.1864Z" fill="black"/>
</svg>
