<svg width="64" height="64" viewBox="0 0 64 64" fill="none" xmlns="http://www.w3.org/2000/svg">
<path d="M30.4801 3.52012C29.7868 3.57878 28.4108 3.80812 27.9574 3.94145C27.7601 4.00012 27.3494 4.11212 27.0401 4.19212C25.6214 4.56012 24.0588 5.37612 22.9068 6.35212C21.6588 7.40278 20.3468 9.07212 19.6108 10.5334C18.8801 11.9894 18.3361 13.8081 18.1281 15.4828C18.0641 16.0161 18.0854 18.0748 18.1548 18.2455C18.1868 18.3201 18.0321 18.3308 16.6828 18.3628C14.3628 18.4161 10.7254 18.6401 9.54677 18.8001C8.26677 18.9761 7.9041 19.0401 7.62677 19.1361C7.46677 19.1948 7.14143 19.2855 6.90677 19.3335C6.29343 19.4615 5.96277 19.6321 5.60543 19.9841C5.0081 20.5868 4.86943 21.1628 5.17877 21.7388C5.27477 21.9148 5.3921 22.1388 5.44543 22.2455C5.49877 22.3521 5.6161 22.5015 5.70677 22.5815L5.8721 22.7201L5.7921 23.2641C5.55743 24.7841 5.46677 26.9815 5.4721 30.7735C5.4721 35.2055 5.50943 35.8775 5.9521 39.7601C6.48543 44.5015 6.6241 45.4508 6.98677 46.9335C7.37077 48.4961 7.64277 49.2108 8.26677 50.3308C8.88543 51.4348 9.14143 51.7388 10.1921 52.5815C11.3441 53.5148 13.2908 54.1335 16.7468 54.6668C20.5281 55.2481 22.0694 55.3228 29.8401 55.3175C38.5494 55.3068 39.4881 55.2855 44.4801 54.9601C49.2321 54.6508 50.2988 54.5495 51.6588 54.2721C54.1921 53.7548 55.3441 53.2215 56.1228 52.1975C56.5334 51.6641 57.2694 50.1921 57.6214 49.2108C58.2828 47.3388 58.9761 44.0588 59.2748 41.3868C59.4294 40.0055 59.7974 35.6908 59.9254 33.7335C60.0801 31.3121 59.9894 28.9175 59.6748 27.3868C59.2908 25.5415 58.3361 23.6908 57.1148 22.4268C56.3468 21.6375 55.7708 21.2321 54.5068 20.6081C52.9388 19.8348 51.9574 19.5148 50.2668 19.2321C48.7148 18.9708 46.3148 18.7095 44.7894 18.6348C44.3894 18.6135 44.0321 18.5815 44.0001 18.5601C43.9574 18.5335 43.9734 18.4055 44.0534 18.1015C44.3468 16.9975 44.1868 15.0401 43.6268 12.8215C43.2801 11.4615 42.8694 10.5014 42.2188 9.52545C40.9814 7.68012 39.3228 6.33612 36.6401 4.99212C34.9281 4.13878 33.9574 3.76012 33.0401 3.60012C32.4694 3.50412 31.1788 3.46145 30.4801 3.52012ZM32.2134 8.18678C33.2321 8.38945 34.6508 9.01878 35.9468 9.83478C36.4854 10.1761 36.7414 10.3841 37.2534 10.9014C38.1601 11.8134 38.5601 12.3628 38.7414 12.9495C38.9921 13.7761 39.1841 14.7415 39.4721 16.5601C39.5361 16.9708 39.6641 17.5468 39.7548 17.8401L39.9254 18.3735L32.4854 18.3628C28.3894 18.3521 24.0748 18.3361 22.8908 18.3148L20.7414 18.2828L20.7734 18.0321C21.0081 16.2668 21.5254 14.5708 22.1868 13.4188C22.9174 12.1441 24.5281 10.4481 25.8401 9.57345C27.1254 8.71478 28.2988 8.26145 29.6534 8.08545C30.0428 8.03745 31.8188 8.10678 32.2134 8.18678ZM39.3868 22.8748C42.3041 23.0348 44.0801 23.1788 45.7068 23.3921C49.9148 23.9361 52.9228 24.9175 53.9948 26.0908C54.2828 26.4055 54.3574 26.5335 54.4748 26.8908C54.9601 28.3575 55.1681 30.6241 55.0454 33.1201C54.9388 35.2268 54.5281 40.8001 54.3681 42.2135C54.1441 44.2401 53.7441 46.2135 53.3601 47.2001C52.9708 48.1921 51.8774 48.9548 50.4588 49.2268C49.8081 49.3548 49.4188 49.4028 47.3334 49.6001C46.3948 49.6908 44.6668 49.8668 43.4934 50.0001C37.2908 50.6881 34.5494 50.8961 28.1868 51.1575C24.7414 51.2961 19.5254 51.3281 18.2401 51.2108C15.1574 50.9335 12.4428 50.4161 11.4454 49.9095C11.3334 49.8508 11.0561 49.6215 10.8321 49.3975C10.2028 48.7735 9.84543 47.9788 9.41877 46.2668C9.1681 45.2641 9.07743 44.7308 8.6401 41.6801C8.4321 40.2401 8.18143 38.5281 8.0801 37.8668C7.8561 36.4055 7.72277 35.1148 7.54677 32.6401C7.41877 30.8161 7.38143 30.0855 7.2481 26.9601C7.2161 26.1655 7.16277 25.0775 7.12543 24.5335C7.0881 23.9895 7.06143 23.5415 7.06677 23.5308C7.07743 23.5201 7.2001 23.5735 7.3441 23.6481C7.79743 23.8721 8.2401 24.0001 8.60277 24.0001C8.78943 24.0001 9.70677 23.9148 10.6454 23.8188C13.5894 23.4988 15.5094 23.3388 18.1334 23.2001C19.6854 23.1201 25.3068 22.9068 28.0268 22.8268C30.0481 22.7681 38.0641 22.8001 39.3868 22.8748Z" fill="black"/>
</svg>
