<svg width="64" height="64" viewBox="0 0 64 64" fill="none" xmlns="http://www.w3.org/2000/svg">
<path d="M48.6933 19.1788C44.064 19.4454 42.5333 19.5148 39.4667 19.5734C35.9467 19.6428 32.896 19.7228 31.4133 19.7868C29.7547 19.8614 27.344 19.9361 24.72 20.0001C18.7627 20.1441 17.024 20.2134 14.7467 20.4001C14.2187 20.4428 13.1627 20.5281 12.4 20.5868C10.6133 20.7254 9.76001 20.9014 9.76001 21.1254C9.76001 21.2534 10.0267 21.6908 10.144 21.7441C10.4053 21.8721 10.6133 21.8828 13.6427 21.8774C16.5653 21.8721 16.752 21.8774 16.72 21.9628C16.6027 22.2774 16.5813 22.5921 16.64 23.2641C16.6827 23.7548 16.7093 26.2401 16.72 31.4134C16.7307 37.7441 16.7467 39.0348 16.8213 40.0534C16.9973 42.4374 17.1413 43.4561 17.52 44.9654C17.7013 45.7121 17.8133 45.9788 18.2133 46.6401C18.336 46.8428 18.528 47.1841 18.6293 47.3921C18.736 47.6054 18.8907 47.8241 18.9707 47.8881C19.1787 48.0481 19.5627 48.3414 19.808 48.5334C19.9627 48.6508 20.048 48.6828 20.1547 48.6561C20.3733 48.6081 20.5707 48.4908 20.7147 48.3414L20.8427 48.1974L21.904 48.3148C23.9733 48.5334 25.808 48.6241 29.3867 48.6881C32.3573 48.7414 34.9387 48.7094 37.8933 48.5868C39.2427 48.5281 40.7093 48.4694 41.1467 48.4534C45.2533 48.2934 46.6933 48.0908 47.9413 47.4881C48.3573 47.2854 48.5173 47.1681 48.9067 46.7841C49.4667 46.2241 49.7813 45.7281 50.5653 44.1601C51.232 42.8214 51.3173 42.6294 51.76 41.3868C52.1813 40.2188 52.3787 39.5841 52.8533 37.8668C53.0613 37.1201 53.6107 35.3654 54.08 33.9734C55.056 31.0561 55.3333 30.1121 55.9733 27.5734C56.5867 25.1148 56.8107 24.3468 57.392 22.6134L57.888 21.1468L57.8933 20.5601C57.8933 19.8774 57.84 19.7601 57.44 19.5734C57.3067 19.5148 57.136 19.4294 57.056 19.3814C56.8267 19.2588 55.3653 19.1948 52.0267 19.1788C50.384 19.1681 48.8853 19.1681 48.6933 19.1788ZM37.12 21.8401C40.2027 21.9254 41.152 21.9414 49.6 22.0321C52.5493 22.0641 54.9653 22.1014 54.976 22.1068C54.9867 22.1174 54.8907 22.3574 54.768 22.6454C54.3787 23.5628 53.68 25.3654 53.184 26.7468C52.2987 29.2001 52.1333 29.6054 50.7947 32.6294C50.2827 33.7868 49.584 35.4348 49.2427 36.2881C48.9067 37.1414 48.4587 38.2241 48.2507 38.6934C47.776 39.7761 46.8107 41.7761 46.5173 42.2774C46.2293 42.7681 45.7867 43.2428 45.456 43.4241L45.2 43.5628L41.6 43.5894C38.8053 43.6054 37.5893 43.6374 36.16 43.7228C35.1467 43.7868 33.36 43.8721 32.1867 43.9201C29.9253 44.0054 27.904 44.1121 26.032 44.2401C24.832 44.3254 23.36 44.3414 22.5067 44.2881L21.9947 44.2508L21.7867 43.2054C21.4667 41.5894 21.4507 41.4828 21.3387 40.3468C21.2213 39.2268 21.04 36.3041 20.9867 34.7201C20.896 32.0428 20.8107 30.6934 20.5333 27.4668C20.448 26.4534 20.352 25.2534 20.32 24.8001C20.208 23.1521 20.096 22.4481 19.8667 22.0428L19.7387 21.8134L22.4427 21.8081C23.9307 21.8028 26.2987 21.7814 27.7067 21.7654C31.0453 21.7228 33.552 21.7441 37.12 21.8401Z" fill="black"/>
<path d="M46.08 50.0587C45.664 50.1227 44.9653 50.2987 44.3627 50.4853C44.0107 50.5973 43.52 50.928 43.2907 51.2053C42.2667 52.4587 42 54.2667 42.6347 55.6587L42.7627 55.9413L42.6133 55.9947C42.1493 56.1547 42.2347 56.9227 42.832 57.9893C43.2 58.64 43.3547 58.8213 43.8613 59.2107C44.608 59.776 45.328 60.0587 46.112 60.096C47.7333 60.1653 49.088 59.1627 50.0747 57.1573C50.7093 55.8667 50.9867 54.8533 50.9867 53.8293C50.9813 52.608 50.6347 51.8133 49.7707 51.0827C49.408 50.7733 48.2027 50.1653 47.7333 50.0587C47.3227 49.9627 46.7093 49.9627 46.08 50.0587ZM47.6267 53.792C47.7867 53.84 48.0373 53.936 48.1813 54.0107L48.4427 54.144L48.4107 54.6027C48.3253 55.8293 47.5787 57.0293 46.5013 57.6693C46.176 57.8667 46.144 57.872 45.8133 57.8453C44.96 57.7813 44.544 57.4827 44.1067 56.6347C43.9253 56.288 43.7867 56.08 43.7067 56.0427C43.5733 55.984 43.568 55.8827 43.6853 55.488C43.8187 55.0453 45.3973 53.92 46.1547 53.7227C46.4907 53.6373 47.2267 53.6693 47.6267 53.792Z" fill="black"/>
<path d="M23.8667 50.8267C23.7494 50.8534 23.5361 50.896 23.3867 50.9227C21.5627 51.2693 20.8694 51.7333 20.2881 52.992C19.7707 54.1013 19.7654 55.0773 20.2561 56.0427C20.4267 56.3787 20.7681 56.7893 20.9387 56.8587C20.9707 56.8693 21.1094 57.0933 21.2534 57.3547C21.7067 58.16 22.4854 58.7733 23.4667 59.0827C24.6561 59.4667 25.7867 59.4507 26.5227 59.056C27.2214 58.672 27.9201 57.472 28.2827 56.0267C28.4374 55.408 28.4321 54.1653 28.2774 53.584C28.0694 52.8267 27.6214 52.128 27.0507 51.68C26.7521 51.4453 25.8134 50.9707 25.4294 50.8534C25.1361 50.768 24.2454 50.752 23.8667 50.8267ZM25.2054 54.5867C25.6907 54.752 25.7067 54.768 25.7067 55.2693C25.7067 56.1013 25.4241 56.6667 24.8001 57.0827C24.4801 57.3013 23.2961 57.1147 22.7947 56.7733C22.5067 56.576 22.2347 56.24 22.1014 55.9147C22.0587 55.808 21.9734 55.712 21.9201 55.696C21.8614 55.68 21.8294 55.648 21.8401 55.6213C21.8827 55.5573 23.2641 54.7307 23.4987 54.6347C23.9681 54.4373 24.6934 54.4213 25.2054 54.5867Z" fill="black"/>
</svg>
