<svg width="64" height="64" viewBox="0 0 64 64" fill="none" xmlns="http://www.w3.org/2000/svg">
<path d="M34.9067 6.03198C34.2827 6.07998 33.0667 6.26665 32.6347 6.37865C32.416 6.43198 32 6.45331 31.168 6.45331C28.2453 6.45331 25.7973 6.82665 22.5333 7.75998C18.1227 9.02931 14.816 10.7146 12.5813 12.8373C11.4453 13.92 10.1387 15.6 9.14667 17.248C7.728 19.6106 6.23467 23.4987 5.68 26.2667C5.35467 27.9093 5.30667 28.4213 5.30667 30.3733C5.30667 32.1813 5.33334 32.608 5.57867 34.5067C6.10134 38.6187 6.912 41.3867 8.41067 44.2133C10.368 47.888 11.8933 50.1653 13.888 52.3733C16.9333 55.7333 21.344 58.816 25.3707 60.3947C28.4107 61.5893 32.592 62.2027 36.08 61.9733C38.4587 61.8133 41.1093 61.2853 42.9333 60.6027C47.0347 59.0667 50.496 56.2933 53.3227 52.2667C53.8773 51.472 54.5867 50.352 55.136 49.4027C56.3467 47.3067 57.9467 44.0533 58.5493 42.4533C59.2853 40.512 59.5947 39.52 60 37.7973C60.6027 35.2107 60.7733 33.648 60.768 30.5867C60.768 28.528 60.704 27.5467 60.4747 25.9467C59.9787 22.5013 58.752 19.424 56.624 16.272C54.6827 13.4026 52.272 11.072 49.5893 9.47731C48.08 8.57598 45.248 7.25865 44.1067 6.91731C42.7307 6.50665 40.6667 6.17065 38.656 6.02665C37.7653 5.96798 35.7013 5.96798 34.9067 6.03198ZM36.7253 9.46131C37.8347 10.0106 39.536 10.8746 40.5067 11.3813C41.472 11.8933 42.9653 12.656 43.8133 13.0826C46.9493 14.6613 47.9467 15.344 49.68 17.1253C50.7627 18.24 51.6107 19.296 52.5333 20.6933C53.056 21.488 53.2693 21.8987 53.696 22.96C54.7253 25.52 55.0933 27.7227 55.0933 31.3333C55.0933 35.712 54.4053 39.0933 52.736 42.9067C51.5787 45.5467 50.224 47.7867 48.5867 49.76C45.728 53.2053 41.8613 55.8133 38.6987 56.4213C36.8427 56.784 34.16 56.8107 31.6267 56.5013C27.9147 56.048 24.8267 55.056 22.0693 53.4347C18.304 51.2213 15.2587 48.3253 12.8267 44.64C10.64 41.328 9.536 38.4 8.77334 33.904C8.528 32.4267 8.43734 31.696 8.37334 30.5493C8.208 27.728 8.83734 24.416 10.2027 20.9333C11.2373 18.2986 13.2533 15.4826 15.2693 13.8613C17.4133 12.1333 20.832 10.512 24.64 9.41331C26.304 8.93331 27.4453 8.71465 29.04 8.55998C30.2933 8.44265 30.4053 8.43731 32.6453 8.44798L34.7093 8.45865L36.7253 9.46131Z" fill="black"/>
<path d="M20.1387 25.2C20.08 25.2427 20.0533 25.296 20.0747 25.3173C20.0907 25.3387 20.16 25.3013 20.2293 25.2373C20.3573 25.104 20.2933 25.0826 20.1387 25.2Z" fill="black"/>
<path d="M42.5067 25.44C42.3467 25.4613 42.0373 25.5093 41.824 25.5413C41.4453 25.6 41.0613 25.696 40.1813 25.952C38.6187 26.4107 38.1173 27.8613 38.9547 29.504C39.424 30.4267 39.76 30.9973 40 31.296C40.3467 31.7227 41.3813 32.528 41.936 32.7947C43.12 33.3653 44.1227 33.4293 44.896 32.976C45.3067 32.736 45.6693 32.3093 45.9893 31.696C46.8747 29.984 47.0987 28.3573 46.5867 27.3227C46.2827 26.7093 45.904 26.368 45.0507 25.952C44.6613 25.76 44.2133 25.568 44.048 25.5253C43.6587 25.4293 42.8853 25.3813 42.5067 25.44Z" fill="black"/>
<path d="M20.9333 25.552C20.1493 25.696 19.3813 25.904 19.0667 26.0586C18.3413 26.4213 17.8667 27.232 17.8667 28.1013C17.8667 28.56 18.0107 29.232 18.1973 29.6266C18.5493 30.3786 19.0933 31.2906 19.3653 31.5946C19.7653 32.032 20.576 32.6453 21.04 32.8586C21.3387 32.9973 21.4933 33.04 21.8507 33.056C22.2987 33.0826 22.4587 33.0453 23.4934 32.7146C24.1974 32.4853 24.6347 31.9413 25.1574 30.64C25.584 29.5786 25.6107 28.224 25.2214 27.4506C25.056 27.1253 24.704 26.7093 24.4 26.48C24.048 26.2186 22.9387 25.6746 22.5334 25.5733C22.1867 25.488 21.3653 25.4773 20.9333 25.552Z" fill="black"/>
<path d="M21.4454 40.6346C21.2054 40.6986 21.2 40.7999 21.3974 41.2586C21.984 42.6079 22.8694 43.6533 24.384 44.7839C26.896 46.6613 28.896 47.5413 31.5787 47.952C32.9654 48.1653 34.992 48.096 36.464 47.7866C38.4214 47.3759 40.8854 46.0853 41.904 44.9226C42.8747 43.8186 43.7387 42.3733 43.8294 41.6959C43.8507 41.5092 43.8454 41.4932 43.7227 41.4932C43.4454 41.4932 41.7227 42.1172 40.7307 42.5813C40.4587 42.7039 39.952 42.9919 39.6 43.2106C38.5227 43.8879 37.248 44.4746 36.3787 44.6986C35.776 44.8533 34.4054 44.9279 33.488 44.8586C30.944 44.6613 28.3627 43.9946 25.184 42.7253C24.1067 42.2933 23.1414 41.7226 22.3094 41.0186C21.968 40.7306 21.7174 40.5759 21.6107 40.5919C21.5894 40.5972 21.5147 40.6132 21.4454 40.6346Z" fill="black"/>
</svg>
