<svg width="64" height="64" viewBox="0 0 64 64" fill="none" xmlns="http://www.w3.org/2000/svg">
<path d="M33.6533 4.6239C33.5253 4.6399 33.392 4.66656 33.36 4.69323C33.3333 4.71456 33.2 4.7519 33.0666 4.77323C32.7306 4.82656 32.6506 4.88523 32.2613 5.3279C32.0746 5.54656 31.4026 6.21856 30.7733 6.82123C28.5653 8.93323 26.8373 10.5972 25.0666 12.3199C24.0853 13.2746 22.7413 14.5706 22.08 15.1999C21.4186 15.8292 20.5546 16.6559 20.16 17.0399C16.2506 20.8212 14.2667 22.7626 9.62132 27.3812C7.99999 28.9866 6.62399 30.3412 6.56533 30.3839C6.35733 30.5279 6.18666 30.8959 6.18666 31.1892C6.18666 31.4239 6.23999 31.5679 6.53866 32.1492C6.87999 32.8106 6.98133 32.9386 7.46133 33.3279C7.87199 33.6532 7.81333 33.6959 10.0427 31.4772L12 29.5199L11.9733 29.7599C11.9413 29.9999 11.7333 32.5439 11.6267 33.9199C11.5947 34.3146 11.5467 36.1012 11.52 37.8932C11.472 41.1199 11.44 41.7652 11.2053 44.0532C11.0347 45.7119 10.992 46.6612 10.976 48.9332C10.96 51.3866 10.9387 51.2426 11.5093 52.2399C11.6747 52.5332 11.8613 52.8852 11.9253 53.0186C12.0747 53.3386 12.3733 53.6692 12.7467 53.9199C12.912 54.0319 13.0773 54.1599 13.12 54.2132C13.3333 54.4692 14.0213 54.6559 14.72 54.6399C14.8533 54.6346 15.6906 54.6132 16.5866 54.5919C18.2986 54.5439 18.5013 54.5546 21.6266 54.7999C22.5653 54.8692 23.984 54.9812 24.7733 55.0399C25.568 55.0986 27.296 55.2426 28.6133 55.3599C31.4346 55.6052 32.6933 55.7012 34.6133 55.8132C35.392 55.8559 37.4453 55.9892 39.1733 56.1066C44.5173 56.4639 46.1226 56.5279 48.6133 56.5066C50.0479 56.4906 50.3359 56.4746 50.7733 56.3786C52.2346 56.0639 52.9973 55.1786 53.6426 53.0666L53.7813 52.6132L53.8133 48.6666C53.8453 45.5679 53.8719 44.5492 53.9359 43.9199C54.3093 40.5226 54.7413 34.0479 54.8213 30.7306L54.8533 29.2799L56.3733 30.6132C58.2186 32.2399 58.8266 32.7519 59.0079 32.8479C59.1893 32.9492 59.2799 32.8692 59.3919 32.5066L59.4826 32.2292L59.3226 31.9412C59.1519 31.6319 56.4373 28.0319 55.5519 26.9386C54.9333 26.1759 53.5199 24.5226 52.8853 23.8132C52.0533 22.8906 50.2666 20.9279 49.8666 20.5066C49.6479 20.2719 49.1573 19.7439 48.7733 19.3332C47.9413 18.4372 47.2426 17.6959 45.0399 15.3599C44.7999 15.1092 44.4266 14.7146 44.2079 14.4799C43.9839 14.2452 43.6159 13.8506 43.3813 13.5999C43.1519 13.3546 42.7573 12.9332 42.5066 12.6666C42.2559 12.3999 41.7173 11.8239 41.3066 11.3866C38.992 8.91189 37.2746 7.15189 36.0053 5.9519C35.408 5.38656 34.6506 4.7999 34.5226 4.7999C34.48 4.7999 34.384 4.7519 34.3093 4.69323C34.2346 4.63456 34.112 4.5919 34.032 4.59723C33.9573 4.60256 33.7866 4.61323 33.6533 4.6239ZM34.9546 9.01323C35.9893 10.1546 37.2586 11.4879 39.44 13.7332C40.352 14.6719 41.84 16.2079 42.7466 17.1466C46.6826 21.2052 48.0266 22.5866 49.7759 24.3519L51.6266 26.2239L51.4293 26.4319C50.9973 26.8852 50.9866 27.0559 51.1306 30.2612C51.2106 32.0319 51.2106 32.5652 51.1573 34.5012C51.0826 37.1626 50.9066 39.7279 50.5866 42.9599C50.2186 46.6132 50.1333 48.8212 50.2719 51.1146L50.3039 51.6426L49.4879 51.6052C49.0346 51.5839 48.0693 51.5199 47.3333 51.4612C46.6026 51.4079 45.5573 51.3226 45.0133 51.2799C40.4906 50.9226 35.4986 50.7626 24.1333 50.6132C20.0053 50.5599 17.4826 50.4479 15.408 50.2346L14.848 50.1759L14.8693 47.1519C14.9226 40.9919 14.912 40.2506 14.7573 38.3466C14.6773 37.3919 14.5547 35.7012 14.48 34.5866C14.2613 31.3172 14.08 28.7519 14.0267 28.2666C13.9947 28.0159 13.9733 27.7599 13.9733 27.6906C13.9733 27.5999 14.832 26.7039 17.296 24.2239C20.352 21.1519 21.3493 20.1386 24 17.4132C24.512 16.8852 25.7493 15.6266 26.7466 14.6132C28.992 12.3412 30.48 10.8159 31.648 9.59989C32.1386 9.08789 32.7946 8.41589 33.1093 8.11723L33.6693 7.56256L33.888 7.82389C34.0106 7.96256 34.4906 8.50123 34.9546 9.01323Z" fill="black"/>
</svg>
