<svg width="64" height="64" viewBox="0 0 64 64" fill="none" xmlns="http://www.w3.org/2000/svg">
<path d="M30.9597 6.75734C29.1464 6.848 26.2824 7.23734 24.4637 7.632C23.5464 7.83467 21.445 8.39467 20.4264 8.71467C17.7704 9.54134 15.301 10.672 13.3864 11.936C11.2957 13.3173 9.90903 14.6933 8.62903 16.64C5.92503 20.768 3.97836 28.448 4.26636 33.8507C4.47436 37.7653 5.46636 41.072 7.55703 44.8C7.78103 45.1947 8.11703 45.7973 8.30903 46.1333C9.66369 48.5547 11.237 50.3467 13.637 52.208C15.861 53.936 17.0877 54.5867 20.5864 55.8933C24.8584 57.488 27.525 58.08 30.4744 58.0907C31.909 58.096 32.8104 57.9627 34.293 57.5413C37.1944 56.72 39.4504 55.312 40.7037 53.5467C41.253 52.7627 41.669 52.0053 41.6744 51.76C41.6797 51.568 41.6637 51.5467 41.541 51.5307C41.4664 51.52 41.061 51.648 40.6504 51.808C39.541 52.24 39.253 52.3147 38.5117 52.3787C37.7224 52.4427 36.4264 52.384 34.1597 52.1867C33.3384 52.112 32.0264 52.0213 31.2424 51.9733C27.733 51.776 25.205 51.216 21.109 49.728C19.3757 49.104 18.581 48.752 17.813 48.2773C15.5304 46.864 13.5037 44.8213 11.9464 42.3467C10.1384 39.4773 9.17836 36.7147 8.90103 33.6053C8.82103 32.6933 8.86903 30.4 8.98103 29.4667C9.37569 26.3307 10.021 23.6427 10.8317 21.7867C12.405 18.1707 16.2397 15.3653 22.1704 13.488C24.1917 12.8533 26.021 12.48 28.3997 12.2293C29.5464 12.1067 33.4077 12.0907 34.4264 12.2027C38.9384 12.6987 43.0824 13.968 46.069 15.7707C47.5624 16.672 48.485 17.4453 49.6797 18.8C50.8157 20.0907 52.261 22.224 52.8317 23.4507C53.6904 25.2853 54.213 26.9493 54.437 28.56C54.5544 29.408 54.5544 31.2053 54.437 32C54.133 33.9627 53.621 35.456 52.421 37.8667C51.3117 40.096 50.3144 41.7067 49.3757 42.8C48.1224 44.2613 46.597 45.3973 44.8904 46.16L44.421 46.368L44.0477 46.304C43.5784 46.224 43.4504 46.1547 42.9864 45.7547C42.1597 45.0453 41.4824 43.84 41.093 42.3893C40.6557 40.7733 40.6184 38.9653 40.9384 34.88C41.0557 33.3227 41.221 31.8987 41.3064 31.7013C41.701 30.752 42.501 27.44 42.7944 25.5467C43.0824 23.6693 43.237 21.36 43.0984 21.0187C43.029 20.864 42.821 20.7467 42.6077 20.7467C42.5597 20.7467 42.4157 20.6613 42.2877 20.5547C42.037 20.3467 42.133 20.352 41.2264 20.4747C40.8904 20.5227 40.4744 20.6187 39.909 20.7787C39.4717 20.9067 39.4077 21.0187 39.2264 21.984C39.157 22.3733 38.9597 23.2427 38.7997 23.92C38.373 25.6747 37.9624 27.5307 37.7064 28.8533C37.5677 29.5573 37.4024 30.2187 37.2797 30.56C36.437 32.9067 35.4024 34.9547 33.9944 37.0773C31.5944 40.6827 29.6477 42.7253 27.8664 43.5147C27.4077 43.7173 26.3784 43.6267 25.333 43.296C24.6984 43.0933 24.3517 42.9227 23.813 42.5333C21.7224 41.0293 20.597 38.912 20.2344 35.7867C20.0637 34.2827 20.2077 32.2133 20.565 31.1573C21.0184 29.808 22.1597 28.3253 23.893 26.832C27.0077 24.1493 29.605 22.9867 32.2397 23.1093C33.5837 23.1733 34.6984 23.4453 35.861 23.9947C36.597 24.3413 36.9864 24.6027 37.0717 24.8107C37.1677 25.0453 37.381 25.28 37.493 25.28C37.6317 25.28 37.6797 25.1947 37.813 24.752C37.989 24.1547 37.9517 23.7333 37.6904 23.344C37.2957 22.7467 36.133 21.888 34.9757 21.3333C32.885 20.3413 30.901 20.1867 28.373 20.8213C26.5384 21.2853 25.3224 21.84 23.573 23.0027C20.2984 25.1787 18.565 27.28 17.5677 30.2667C17.1037 31.6747 16.8957 33.088 16.8957 34.9067C16.8904 36.8107 17.0984 38.1707 17.6317 39.7867C17.9197 40.6773 18.9224 42.6187 19.589 43.5947C20.2184 44.5067 21.6157 45.808 22.7997 46.576C23.7437 47.184 24.9757 47.6853 25.9837 47.872C26.6504 48 27.8664 48 28.4797 47.8773C31.061 47.3653 33.189 45.6907 35.8397 42.096L36.3944 41.3387L36.4904 41.9893C36.757 43.8667 37.2264 45.2533 38.149 46.8853C38.3677 47.28 38.6077 47.7173 38.6824 47.8667C39.0824 48.6667 39.8717 49.6533 40.565 50.224C42.3944 51.7227 42.9704 52 44.2397 52C45.477 52 46.917 51.6 48.5224 50.816C51.301 49.456 53.221 47.552 55.0824 44.32C55.8184 43.0347 57.2584 40.1653 57.8024 38.9067C58.7997 36.576 59.573 33.92 59.813 31.984C60.1704 29.088 59.781 26.1547 58.6557 23.3387C57.8397 21.2853 56.5224 18.9707 54.997 16.9067C53.1304 14.384 51.3917 12.736 48.9757 11.184C48.1224 10.64 45.429 9.27467 44.373 8.85867C41.5464 7.73867 38.1384 6.992 34.853 6.77334C34.1277 6.72534 31.7544 6.71467 30.9597 6.75734Z" fill="black"/>
</svg>
