<svg width="64" height="64" viewBox="0 0 64 64" fill="none" xmlns="http://www.w3.org/2000/svg">
<path d="M21.4933 7.8986C20.656 7.91994 18.56 7.9786 16.8267 8.0266C15.0987 8.06927 13.5467 8.13327 13.3867 8.16527C11.6373 8.50127 11.024 8.6986 10.544 9.0826C10.2613 9.31194 10.0267 9.68527 10.0267 9.90394C10.0267 10.1013 10.1973 10.4639 10.448 10.8106C10.8107 11.3119 12.32 12.3626 13.008 12.5973C13.344 12.7146 13.4293 12.7199 14.7733 12.7039C16.4053 12.6933 17.952 12.6346 21.68 12.4533C26.736 12.2026 29.28 12.1226 32.7733 12.0906C36.544 12.0533 39.824 12.1706 45.8667 12.5599C49.5253 12.7946 50.7253 12.8533 51.9733 12.8533C53.9093 12.8533 54.912 12.5706 55.264 11.9199C55.344 11.7759 55.4027 11.6426 55.4027 11.6266C55.3973 11.6106 55.424 11.5306 55.456 11.4506C55.4933 11.3653 55.52 11.1946 55.52 11.0613C55.52 10.8533 55.504 10.8159 55.376 10.7626C55.2853 10.7253 54.864 10.6986 54.3467 10.6933C53.8133 10.6879 53.2373 10.6506 52.88 10.5919C50.3573 10.1973 49.0827 9.9946 47.6267 9.75994C45.4133 9.4026 41.9413 8.9066 39.7867 8.63994C36.8587 8.27727 34.672 8.07994 31.9467 7.94127C30.4853 7.87194 23.4027 7.83994 21.4933 7.8986Z" fill="black"/>
<path d="M28.8002 28.8907C25.4668 28.9814 17.1948 29.36 15.4668 29.4987C14.1815 29.6 12.8055 29.808 12.1602 29.9947C11.9095 30.064 11.4562 30.1867 11.1468 30.272C10.1762 30.5227 9.41349 30.8747 8.60283 31.4294C7.32816 32.2987 7.36016 32.9014 8.73083 33.7227C9.45616 34.1654 11.0188 34.7787 12.0535 35.0347C13.2588 35.3334 13.3175 35.3334 16.7735 35.1201C17.4775 35.0774 19.5682 34.9547 21.4135 34.8534C23.2642 34.7521 26.0482 34.5974 27.6002 34.5067C29.1575 34.4214 31.0402 34.3254 31.7868 34.2934C32.5335 34.2614 33.3175 34.2294 33.5202 34.2134C33.7282 34.2027 37.0508 34.1654 40.9068 34.1387C44.7628 34.1067 48.5922 34.0587 49.4135 34.0267C52.6028 33.9094 54.5868 33.6854 55.1948 33.3761C55.3922 33.2747 55.4722 33.1841 55.6108 32.9334C55.7015 32.7574 55.7815 32.5654 55.7815 32.5121C55.7868 32.4534 55.8242 32.3681 55.8668 32.3147C55.9202 32.2614 55.9628 32.0747 55.9842 31.8454C56.0215 31.3814 55.9895 31.3387 55.4455 31.0774C54.5015 30.6187 52.5175 30.2454 49.3602 29.9254C47.6055 29.744 40.2882 29.2054 37.4402 29.04C34.5655 28.88 31.3122 28.8214 28.8002 28.8907Z" fill="black"/>
<path d="M23.6538 50.3787C22.2512 50.4214 20.3472 50.5174 19.8938 50.5654C18.1765 50.7414 16.4219 51.0774 14.3472 51.6214C11.3659 52.4054 9.70719 53.0027 9.50453 53.3707C9.41919 53.52 9.61119 53.824 9.93119 54.0427C10.6725 54.5494 12.8805 55.2907 15.2059 55.8134C16.1019 56.0107 17.7072 56.288 18.3205 56.3467C18.5285 56.368 24.0272 56.3893 30.5338 56.4C37.0458 56.4053 42.7098 56.4267 43.1205 56.448C47.6858 56.6773 51.2805 56.752 52.3045 56.6347C53.8565 56.464 54.6885 56.016 55.0938 55.1307C55.1898 54.9174 55.2911 54.6987 55.3231 54.64C55.4085 54.48 55.4351 53.7974 55.3658 53.664C55.2485 53.4454 54.1231 52.9494 53.1205 52.672C52.1071 52.4 49.2431 51.8294 46.8005 51.4134C43.7231 50.8907 41.1525 50.64 36.9872 50.448C35.8565 50.4 24.8752 50.3414 23.6538 50.3787Z" fill="black"/>
</svg>
