<svg width="64" height="64" viewBox="0 0 64 64" fill="none" xmlns="http://www.w3.org/2000/svg">
<path d="M51.0664 5.9732C49.861 6.01054 48.485 6.10654 48.4317 6.1652C48.421 6.17587 48.3677 6.1492 48.3144 6.1012C48.245 6.0372 48.1597 6.0212 47.989 6.04787C47.861 6.06387 47.6744 6.0852 47.573 6.09587C47.4077 6.1172 46.9597 6.2132 46.3837 6.3572C46.1597 6.41054 45.9997 6.61854 45.941 6.92254L45.909 7.09854L45.525 7.06654C43.8397 6.9332 40.6237 6.7892 36.693 6.66654C30.261 6.46387 27.5837 6.4372 17.2797 6.47454C8.75166 6.5012 7.40232 6.5172 7.15166 6.58654C6.99166 6.6292 6.83699 6.68787 6.80499 6.71987C6.77299 6.75187 6.74099 6.9332 6.73566 7.13587C6.72499 7.3332 6.65566 8.41587 6.58632 9.54654C6.40499 12.3999 6.35699 13.3439 6.15966 18.0532C5.83965 25.5839 5.56232 31.2372 5.35965 34.4799C5.17832 37.3812 5.12499 38.6772 5.06632 42.1332C5.03965 43.7919 4.99165 46.3679 4.95432 47.8665C4.92232 49.3599 4.90632 51.7012 4.91699 53.0665L4.93832 55.5465L5.07699 55.8932C5.15165 56.0852 5.33832 56.4532 5.49299 56.7199C5.64765 56.9812 5.85032 57.3545 5.94632 57.5465C6.14899 57.9412 6.30366 58.1225 6.59699 58.2932C6.70899 58.3625 6.90632 58.5172 7.03966 58.6399L7.28499 58.8639L8.85299 58.9012C9.71699 58.9172 10.869 58.9545 11.413 58.9759C12.965 59.0345 18.5223 59.0185 21.6263 58.9439C30.3303 58.7359 33.781 58.6772 39.0397 58.6399C52.0904 58.5599 52.7464 58.5492 55.4664 58.4212C56.3357 58.3785 56.3784 58.3572 56.709 57.7065C56.8477 57.4292 56.9597 57.1465 56.9597 57.0772C56.9597 57.0079 57.0077 56.8905 57.0664 56.8159C57.125 56.7412 57.173 56.6239 57.173 56.5545C57.173 56.4852 57.1944 56.3785 57.221 56.3092C57.253 56.2399 57.301 54.9972 57.333 53.5465C57.3597 52.0959 57.4237 50.1385 57.4664 49.1999C57.7277 43.4719 57.8397 35.7759 57.925 18.1119C57.9837 5.2372 58.0157 6.3892 57.589 6.31987C57.4397 6.2932 57.2904 6.21854 57.157 6.1012L56.9597 5.91987L54.677 5.93054C53.4237 5.93587 51.8024 5.9572 51.0664 5.9732ZM11.9463 8.3732C15.3863 8.4852 20.8423 8.6132 25.0397 8.68787C27.557 8.73054 34.4317 8.71987 35.9464 8.66654C36.373 8.65587 37.4984 8.6292 38.453 8.6132C40.3517 8.5812 41.989 8.5172 44.1597 8.39987C44.9384 8.3572 45.7704 8.31987 46.0104 8.31987H46.4424L46.6184 8.67187C46.7144 8.86387 46.8744 9.08787 46.9704 9.16254C47.0664 9.24254 47.2637 9.40787 47.413 9.53054C47.6477 9.7332 47.6904 9.7492 47.845 9.70654C47.9357 9.67987 48.0424 9.63187 48.0797 9.59987C48.1277 9.56254 48.2184 9.5572 48.3784 9.59454C49.0344 9.73854 50.6984 9.85587 53.493 9.95187L54.4797 9.98387L54.469 11.6425C54.4637 12.5599 54.4317 14.6239 54.3997 16.2399C54.213 26.0639 54.117 44.9332 54.2344 48.7732C54.2664 49.8292 54.293 51.6212 54.293 52.7625V54.8265L54.1757 54.8052C54.0157 54.7679 51.109 54.6772 48.9864 54.6399C48.0477 54.6239 46.2344 54.5865 44.9597 54.5599C43.685 54.5279 41.0077 54.4692 39.013 54.4265C37.0184 54.3839 34.933 54.3359 34.373 54.3199C32.757 54.2719 24.1383 53.9839 21.6263 53.8932C17.125 53.7332 16.0903 53.7119 12.741 53.7065H9.35433L9.37566 46.6239C9.39699 39.5039 9.37033 37.5412 9.19966 34.1865C9.09299 32.0639 9.02366 30.3679 8.95966 28.1599C8.93299 27.1199 8.86899 25.0292 8.82633 23.5199C8.78366 22.0105 8.70899 19.4292 8.66632 17.7865C8.55966 13.7119 8.49032 11.7545 8.39966 10.0319C8.29299 8.07454 8.28232 8.26654 8.52232 8.26654C8.62899 8.26654 10.1703 8.31454 11.9463 8.3732Z" fill="black"/>
<path d="M15.5733 12.4637C15.1947 12.5224 14.5013 12.7197 14.272 12.8371C13.952 12.9971 13.4293 13.5304 13.2373 13.8931C13.104 14.1384 13.0933 14.2077 13.0933 14.7997V15.4397L13.424 16.1437C13.8827 17.1411 13.952 17.2264 14.688 17.7277C15.2107 18.0851 15.536 18.2397 15.9573 18.3251C16.5867 18.4584 17.1733 18.2931 17.6 17.8664C17.8507 17.6157 18.24 16.8691 18.4693 16.1917C18.624 15.7491 18.6347 15.6477 18.64 15.0131C18.64 14.3624 18.6293 14.2984 18.4907 13.9997C18.2507 13.4877 18.048 13.3171 17.0987 12.8477C16.224 12.4104 16.096 12.3784 15.5733 12.4637Z" fill="black"/>
<path d="M30.6927 18.4373C28.2714 18.7306 25.6207 19.5466 23.3594 20.6986C20.7674 22.0106 18.7514 23.936 17.7541 26.048C17.2421 27.1413 16.8954 28.3626 16.7141 29.7066C16.6074 30.5173 16.5914 32.32 16.6874 33.0933C16.8527 34.416 17.2154 35.7653 17.7061 36.848C18.0474 37.6053 19.0127 39.36 19.4234 39.9733C20.6021 41.728 22.3194 43.44 24.1221 44.6613C25.6741 45.712 27.7754 46.5066 30.1861 46.9546C31.4874 47.2 31.8127 47.2266 33.2261 47.2266C34.3941 47.2213 34.6821 47.2053 35.2527 47.104C36.6127 46.864 37.6794 46.5173 38.7407 45.9893C41.1141 44.8 42.8207 43.184 44.2607 40.7573C44.6554 40.1013 45.5407 38.3413 45.7647 37.7706C46.3354 36.3413 46.8314 34.64 47.0234 33.424C47.1514 32.6186 47.1461 30.528 47.0181 29.68C46.5807 26.8053 45.2687 24.304 43.1087 22.2346C42.0741 21.248 41.2261 20.6773 39.5781 19.8613C38.4367 19.296 38.0634 19.152 37.2581 18.96C36.4527 18.768 35.6581 18.6666 34.5861 18.6133C34.0581 18.5866 33.3754 18.528 33.0661 18.4853C32.5594 18.4106 31.1354 18.384 30.6927 18.4373ZM32.7461 20.784C33.1407 21.008 34.1167 21.632 34.9061 22.16C37.3114 23.776 37.7541 24.0693 38.6394 24.656C39.6207 25.296 40.4207 26.032 41.1727 26.9866C41.8234 27.8133 41.9461 28.016 42.1807 28.72C43.2954 32.0213 42.6127 35.3546 40.1754 38.48C39.0127 39.9733 37.5834 41.1306 35.8127 42C35.3754 42.2186 34.8314 42.4533 34.6127 42.528C34.0421 42.72 33.1781 42.7946 32.0261 42.7573C29.5461 42.6773 26.9914 41.984 25.6314 41.024C23.6474 39.6266 21.7754 37.3013 20.9861 35.264C20.5754 34.1973 20.3674 33.2266 20.2607 31.8986C20.1647 30.6773 20.3141 29.1253 20.6181 28.16C20.8474 27.4346 21.7807 26.1546 22.8794 25.0666C25.0501 22.9066 28.3727 21.04 31.0287 20.48C31.8554 20.304 31.9194 20.3146 32.7461 20.784Z" fill="black"/>
</svg>
