<svg width="64" height="64" viewBox="0 0 64 64" fill="none" xmlns="http://www.w3.org/2000/svg">
<path d="M31.0665 4.32543C30.2718 4.38943 29.0345 4.60277 28.4638 4.77343C27.9945 4.90677 27.5198 5.1201 27.1198 5.3761C26.9598 5.48277 26.7252 5.54677 26.1865 5.63743C23.3918 6.1121 21.3758 6.9121 19.0345 8.48543C16.4745 10.1974 13.3438 13.0348 11.5732 15.2481C8.85317 18.6401 6.28783 24.2028 5.52517 28.3734C4.8105 32.2881 5.2745 36.4908 6.85317 40.4001C7.55183 42.1228 9.06117 44.9601 10.1438 46.5761C11.8665 49.1521 13.8132 51.1628 16.8692 53.5041C19.5412 55.5628 21.6372 56.7414 24.3572 57.7281C26.5438 58.5174 28.1865 58.9441 30.6398 59.3601C32.6718 59.7068 33.6585 59.8028 35.1465 59.8081C36.8585 59.8081 37.9358 59.6748 39.7598 59.2268C41.4398 58.8161 42.6878 58.3521 44.2665 57.5681C46.8532 56.2774 49.0025 54.7254 51.0718 52.6668C53.5465 50.1974 55.1678 47.8988 56.9652 44.3201C58.2932 41.6748 59.0558 39.4614 59.6212 36.6081C60.2665 33.3761 60.1865 29.4294 59.4078 26.0694C58.6825 22.9334 57.3705 19.9734 55.3705 16.9868C52.8745 13.2481 49.7598 10.2348 46.1598 8.0801C45.1572 7.47743 42.8158 6.3041 41.8665 5.92543C40.4585 5.36543 39.2478 5.0241 37.8132 4.77877C36.8745 4.61343 35.6105 4.4481 34.7465 4.37343C33.8078 4.29343 31.7438 4.26677 31.0665 4.32543ZM32.4638 7.09877C34.1812 7.73877 39.9732 10.3308 41.4505 11.1201C44.1385 12.5601 45.9945 13.9414 48.0265 16.0108C49.7652 17.7761 51.0665 19.4561 52.3465 21.5734C53.1465 22.8961 54.2185 25.6268 54.7145 27.6001C55.2105 29.5681 55.3758 30.9174 55.3812 32.9068C55.3865 34.7894 55.1998 36.2028 54.7145 38.0268C54.0052 40.6721 52.4265 43.8294 50.5278 46.4001L50.1598 46.8961L50.1118 46.7148C49.7598 45.3654 49.5838 44.9441 48.8692 43.7494C47.3385 41.1681 45.0932 38.2561 42.9492 36.0481L42.2932 35.3761L42.5918 35.0081C44.3038 32.8854 45.6532 29.5574 45.9732 26.6668C46.0585 25.9094 46.0425 24.0801 45.9465 23.3494C45.5358 20.2134 43.6852 17.3974 40.9865 15.8081C40.3145 15.4188 38.8638 14.7094 38.1865 14.4481C37.4665 14.1708 36.5332 13.8988 35.6265 13.7068C34.4212 13.4561 33.9945 13.4134 32.5598 13.4188C31.3918 13.4188 31.1092 13.4401 30.2718 13.5681C29.1465 13.7334 28.6505 13.8401 27.4825 14.1654C25.2478 14.7788 23.8025 15.5894 22.4745 16.9708C21.1252 18.3841 20.3625 20.0054 20.1332 21.9734C20.0425 22.7521 20.0265 24.5494 20.1118 25.4401C20.2718 27.2534 20.7358 29.0401 21.3865 30.3734C21.7545 31.1254 22.0105 31.5254 22.1652 31.5948C22.2238 31.6214 22.3412 31.7654 22.4265 31.9148C22.5065 32.0641 22.7038 32.3841 22.8638 32.6294C23.0185 32.8694 23.1465 33.0774 23.1465 33.0881C23.1465 33.0988 22.9972 33.1201 22.8105 33.1414C21.7865 33.2428 20.6025 33.6748 19.7492 34.2401C17.9518 35.4454 16.8212 36.7041 14.7465 39.8134C13.6585 41.4454 13.4078 41.9094 13.0985 42.8908L12.8745 43.5788L12.2078 42.6828C11.0878 41.1841 10.4798 40.2134 9.76517 38.7734C8.8905 37.0134 8.3785 35.4134 8.0265 33.3174C7.49317 30.1068 7.85583 26.8641 9.1465 23.3868C10.1918 20.5708 11.5465 18.1228 13.1998 16.0534C14.9172 13.9094 17.9518 11.1468 20.3198 9.56277C22.4798 8.12277 24.1918 7.44543 26.6132 7.0721C28.0958 6.84277 29.1358 6.77877 30.6932 6.8161L31.7598 6.83743L32.4638 7.09877ZM32.3998 17.5468C34.6718 17.7708 37.2372 18.6294 39.2265 19.8348C40.0158 20.3148 40.4585 20.6721 41.0025 21.2694C41.6052 21.9361 41.9892 22.4801 42.1492 22.9068C42.8905 24.8534 42.8158 27.4401 41.9518 29.8828C40.8585 32.9868 37.9358 36.1174 35.3172 36.9814C33.2425 37.6694 29.6105 36.8908 26.8052 35.1574C24.5865 33.7868 23.1625 32.3414 22.2665 30.5601C21.9358 29.9041 21.8985 29.5894 21.8985 27.7601C21.8985 26.5121 21.9145 26.1228 22.0158 25.3868C22.2505 23.6641 22.6505 22.0268 22.9972 21.3814C23.0825 21.2161 23.3118 20.8854 23.4985 20.6508C24.8212 18.9974 26.9705 17.9094 29.5465 17.6001C30.4905 17.4881 31.5785 17.4668 32.3998 17.5468ZM25.9198 36.0054C28.5012 38.1494 30.8105 39.2801 33.1945 39.5788C33.9038 39.6641 35.2852 39.6108 35.9358 39.4721C36.6505 39.3228 37.3812 39.0668 38.0638 38.7414C38.6772 38.4374 39.8398 37.6908 40.3998 37.2321L40.7252 36.9708L41.0932 37.4294C44.1172 41.1948 45.5252 43.2161 47.1945 46.1814C47.7278 47.1254 47.9518 47.4774 48.4425 48.1281L48.7572 48.5441L48.2878 49.0241C46.2612 51.0774 43.9572 52.7681 41.4985 54.0001C38.4532 55.5254 36.3465 55.8508 32.8158 55.3334C30.0692 54.9334 27.5732 54.2294 25.0398 53.1521C22.4798 52.0588 19.1518 49.7334 15.9358 46.7894L15.0932 46.0268L15.5145 45.4774C15.9625 44.8854 16.0745 44.6881 17.0665 42.7468C18.2185 40.5014 18.8638 39.4241 19.6905 38.3681C20.1225 37.8188 21.6318 36.3094 22.1065 35.9521C22.3145 35.7974 22.7945 35.5148 23.1785 35.3281C23.8878 34.9868 23.9785 34.9068 24.1065 34.5601L24.1705 34.3734L24.7412 34.9334C25.0505 35.2428 25.5838 35.7228 25.9198 36.0054Z" fill="black"/>
</svg>
