<svg width="64" height="64" viewBox="0 0 64 64" fill="none" xmlns="http://www.w3.org/2000/svg">
<path d="M46.1599 6.27744C46.0159 6.29344 45.8719 6.3201 45.8399 6.34677C45.8132 6.3681 45.6425 6.4161 45.4665 6.45344C44.9545 6.55477 44.8372 6.6241 44.7199 6.8801C44.6239 7.09877 44.6239 7.1201 44.7092 7.54144C44.7839 7.9041 44.9599 8.29877 45.8345 10.0534C46.9279 12.2508 47.3065 13.0668 47.7599 14.2401C48.0212 14.9174 48.4372 16.0854 48.5385 16.4374L48.5812 16.5921L48.3839 16.4748C46.0052 15.0561 42.2399 13.1041 40.2505 12.2508C37.7599 11.1841 35.3652 10.5334 32.6932 10.2134C31.6799 10.0908 29.7865 10.0481 28.8532 10.1281C27.2319 10.2668 25.3225 10.6508 23.4932 11.2108C21.2159 11.9041 19.0505 13.1788 17.5199 14.7414C15.7332 16.5601 14.1865 19.1574 13.0079 22.3041C11.7919 25.5574 11.4025 28.6134 11.5679 33.5468C11.6425 35.7814 11.7439 37.0881 11.9519 38.6668C12.1652 40.2774 12.2079 40.8001 12.1545 41.2748C12.1119 41.6534 12.1172 41.6908 12.2399 41.8774C12.3945 42.1121 12.4425 42.1174 12.6825 41.9734C12.9012 41.8401 13.0185 41.6428 13.1999 41.0988C13.3439 40.6828 13.3492 40.6134 13.3919 38.9601C13.4452 37.1841 13.5999 34.0268 13.7385 32.0534C13.9572 28.9174 14.3732 26.5494 15.0132 24.7734C15.7385 22.7788 16.6772 21.1094 18.1012 19.3068C18.5492 18.7361 19.7812 17.5361 20.3732 17.0828C22.3465 15.5894 24.7572 14.6188 27.5199 14.2081C28.4159 14.0801 30.4105 14.0534 31.5199 14.1548C34.0159 14.3948 36.6719 15.0454 39.0772 16.0054C40.6612 16.6401 43.8879 18.1921 46.4159 19.5361L47.1572 19.9308L45.4292 19.9254C44.1172 19.9201 43.4879 19.9468 42.7999 20.0161C39.5412 20.3628 37.1785 20.8534 36.3892 21.3494C35.9785 21.6108 35.6745 22.1068 35.7919 22.3254C35.8452 22.4268 35.9092 22.4428 36.3359 22.4694C36.7145 22.4908 37.2745 22.6081 38.8265 23.0028C43.3972 24.1708 44.7732 24.2988 47.8345 23.8614C49.5199 23.6214 51.0505 23.2481 52.0745 22.8321C53.1252 22.4001 53.4345 22.1441 53.8079 21.3654C54.2559 20.4374 54.3465 20.0961 54.3465 19.3548C54.3465 18.3148 54.1225 17.8614 51.4452 13.5201C50.4585 11.9148 50.0585 11.2161 49.7012 10.4481C49.0879 9.1361 48.4159 7.89877 47.8879 7.11477C47.5625 6.6241 47.5039 6.57077 47.2745 6.5281C47.1679 6.50677 47.0292 6.43744 46.9599 6.3681C46.8265 6.23477 46.7892 6.22944 46.1599 6.27744Z" fill="black"/>
<path d="M55.5733 30.64C55.52 30.704 55.5413 30.7467 55.68 30.8907C55.9253 31.136 55.9947 31.3387 56.0587 32.0107C56.16 33.008 55.9787 34.352 55.6 35.488C55.04 37.1627 53.296 40.608 52.224 42.16C51.4347 43.3067 50.1707 44.6614 49.136 45.4827C46.6987 47.408 43.488 48.976 40.9227 49.488C38.3573 50.0054 35.984 49.984 32.0267 49.408C29.5413 49.0507 29.0827 48.9227 24.32 47.264C23.3067 46.912 22.1867 46.5334 21.8293 46.416C21.4667 46.304 21.1733 46.2027 21.1733 46.1867C21.1733 46.1707 21.4933 46.0534 21.8827 45.9254C24.1547 45.184 25.9253 44.352 27.4613 43.3014C28.4533 42.6294 29.088 42.1814 29.1947 42.0854C29.3227 41.9734 29.7067 41.168 29.7067 41.008C29.7067 40.944 29.7387 40.848 29.7813 40.8054C29.9733 40.5814 30.1067 39.6054 29.9733 39.36C29.9413 39.3014 29.8347 39.2427 29.7173 39.2214C29.6107 39.2054 29.456 39.1254 29.376 39.0507C29.2373 38.9227 29.216 38.9227 28.7893 38.9547C28.2987 38.9974 27.6373 39.1627 25.4133 39.7974C22.2453 40.6987 21.0987 41.168 19.04 42.416C16.2933 44.08 16.3467 44.048 15.6587 44.2934C15.2853 44.4267 14.912 44.5654 14.8267 44.6134C14.5173 44.7734 14.24 45.312 14.24 45.7547C14.24 45.872 14.288 46.2347 14.3467 46.5707C14.6987 48.6347 15.7173 51.3014 17.0987 53.808C18.3627 56.0907 18.7893 56.6294 20.2933 57.8134C20.8373 58.24 21.1307 58.4 21.376 58.4C21.6 58.4 21.648 58.2934 21.7227 57.6374C21.8347 56.592 21.584 54.64 21.168 53.3707C21.0773 53.0934 20.6347 52.1334 20.1547 51.1787C19.6853 50.2454 19.3067 49.472 19.3173 49.4667C19.328 49.456 20.0693 49.712 20.96 50.032C23.6747 51.008 26.4373 51.904 27.8027 52.2454C29.7813 52.7414 32.2293 52.9814 35.44 52.9814C37.4987 52.9814 38.1973 52.9227 39.8667 52.5814C42.0213 52.1494 43.5787 51.6267 45.28 50.7787C47.5147 49.6587 49.36 48.352 50.9387 46.7787C52.48 45.2374 53.36 43.9627 54.5547 41.5467C55.456 39.7334 56.368 37.3974 56.72 36.0267C56.9653 35.0774 57.0347 34.4 56.9973 33.3334C56.944 31.7494 56.624 30.9067 55.9627 30.6294C55.744 30.5387 55.6533 30.5387 55.5733 30.64Z" fill="black"/>
</svg>
