<svg width="64" height="64" viewBox="0 0 64 64" fill="none" xmlns="http://www.w3.org/2000/svg">
<path d="M25.8138 23.8346C25.3124 23.9893 24.9764 24.3626 23.7338 26.1599C22.9231 27.3333 22.6244 27.7119 22.1284 28.1866C21.3444 28.9333 20.2351 29.5786 19.1738 29.8986C18.7418 30.0319 18.6138 30.0479 17.8404 30.0479L16.9871 30.0533L16.4004 29.8506C14.8751 29.3226 13.7604 28.3786 12.8644 26.8533C12.6938 26.5599 12.3738 25.8399 12.3738 25.7386C12.3738 25.7333 12.4271 25.7279 12.4911 25.7279C12.9924 25.7493 12.0324 24.7893 11.0671 24.3039C10.4804 24.0106 10.3204 23.9839 9.82977 24.0853C9.08844 24.2346 9.01911 24.3093 8.54444 25.4399C8.04311 26.6346 7.80311 27.5786 7.68577 28.8533C7.61644 29.5573 7.52044 32.6026 7.52044 34.1066C7.52044 34.6613 7.48311 35.6106 7.42977 36.2133C7.38177 36.8159 7.34444 37.8346 7.34444 38.4799C7.33911 39.7759 7.40844 40.2559 7.74444 41.2586C7.90444 41.7439 8.41644 42.7306 8.75244 43.2106C8.92844 43.4506 9.56311 43.9946 9.92577 44.2079C10.1924 44.3626 10.9924 44.6186 11.6058 44.7413C13.0671 45.0293 18.4804 45.4239 22.6938 45.5413C28.4271 45.7066 32.0964 45.6533 39.3071 45.3066C43.8564 45.0826 45.6858 44.9013 48.4804 44.3946C50.5658 44.0106 51.5258 43.7866 52.9071 43.3493C54.0964 42.9706 54.6511 42.5119 55.1844 41.4666C55.8938 40.0639 56.1711 38.7466 56.1764 36.7733C56.1818 34.7733 55.8458 33.7226 54.8964 32.7786C54.4324 32.3093 53.8084 31.9039 52.8538 31.4293C51.1684 30.5973 50.0378 30.1706 46.8804 29.1786C45.6644 28.7946 44.0324 28.2773 43.2538 28.0319C39.6698 26.8906 36.6458 26.0693 33.7338 25.4399C32.9124 25.2639 32.1978 25.1039 32.1498 25.0879C32.0858 25.0719 32.0538 25.0079 32.0538 24.9066C32.0538 24.7839 32.0164 24.7359 31.8298 24.6453C31.6164 24.5386 31.5951 24.5386 31.2324 24.6186C31.0244 24.6666 30.8271 24.7253 30.7951 24.7519C30.7631 24.7786 30.6991 24.7893 30.6618 24.7733C30.5498 24.7359 27.3658 24.1599 27.2538 24.1599C27.0618 24.1599 26.6138 24.0426 26.5444 23.9786C26.3631 23.7973 26.1071 23.7493 25.8138 23.8346ZM26.4964 24.7413C26.7151 24.8533 28.4644 25.4879 29.3071 25.7599C29.6004 25.8559 29.8564 25.9466 29.8778 25.9679C29.8938 25.9839 29.6751 26.3733 29.3818 26.8266C28.5124 28.1813 27.9524 29.3706 27.0511 31.7866C26.2831 33.8399 25.9738 34.9546 26.1284 35.1039C26.1818 35.1626 26.2618 35.0986 26.5498 34.7999C27.1684 34.1493 28.5284 32.2879 29.4671 30.7893C29.8884 30.1226 30.8644 28.2133 31.3871 27.0293C31.5844 26.5813 31.5951 26.5706 31.7284 26.6239C31.8031 26.6506 32.6831 26.9599 33.6804 27.3066C34.6778 27.6533 35.8084 28.0479 36.1924 28.1866L36.8964 28.4373L36.6298 28.7839C36.0431 29.5679 34.9178 32.2879 34.0324 35.0826C33.5204 36.6986 33.3711 37.3066 33.4511 37.4346C33.4884 37.4933 33.5471 37.5573 33.5844 37.5679C33.6698 37.5999 34.3898 36.8319 35.3338 35.7066C37.3444 33.2959 38.4591 31.5786 38.9924 30.0693C39.1098 29.7493 39.2004 29.4399 39.2004 29.3813C39.2004 29.3279 39.2111 29.2799 39.2271 29.2799C39.2431 29.2799 40.4698 29.6853 41.9631 30.1866C43.4511 30.6826 45.5791 31.3653 46.6938 31.7013C49.0138 32.4053 49.8351 32.6773 50.9604 33.1306C53.1471 34.0106 53.8671 34.4959 54.0431 35.2159C54.2031 35.8613 54.2564 36.4799 54.2244 37.3866C54.1764 38.6666 53.9631 39.8666 53.6964 40.3893C53.5364 40.7146 53.1044 41.1359 52.7844 41.2959C51.9098 41.7226 49.4724 42.0959 46.2404 42.2986C44.3844 42.4159 34.5018 42.3253 30.5338 42.1599C26.4591 41.9893 22.7578 41.8719 17.9738 41.7599C11.6378 41.6106 10.9071 41.5733 10.5818 41.3599C10.3258 41.1946 10.0324 40.3146 9.91511 39.3493C9.86711 38.9599 9.86711 38.4266 9.90977 37.1093C9.95244 35.9466 9.95244 35.0666 9.92044 34.3999C9.78711 31.8186 9.74977 30.4906 9.77644 29.3333C9.80311 27.9626 9.86177 27.5466 10.1658 26.3146L10.3578 25.5466H10.8004H11.2378L11.3018 25.8773C11.4724 26.7519 11.8671 27.6533 12.5071 28.6186C13.3498 29.8879 14.8431 30.9706 16.4004 31.4453C16.8378 31.5786 16.9551 31.5946 17.7604 31.5946C18.4751 31.5999 18.7524 31.5786 19.2431 31.4773C20.4111 31.2426 21.4884 30.8159 22.3738 30.2399C22.9551 29.8613 23.7391 29.0613 24.1711 28.3946C24.5924 27.7599 25.4671 26.2186 25.9364 25.2959C26.1178 24.9333 26.2724 24.6399 26.2831 24.6399C26.2884 24.6399 26.3844 24.6826 26.4964 24.7413Z" fill="black"/>
</svg>
