<svg width="64" height="64" viewBox="0 0 64 64" fill="none" xmlns="http://www.w3.org/2000/svg">
<path d="M35.2427 3.70662C35.2214 3.73328 35.04 3.76528 34.8427 3.79195C34.5067 3.82928 33.5894 4.04262 33.376 4.13328C33.3227 4.15462 33.2267 4.29328 33.1574 4.43728C33.0827 4.59728 33.0134 4.68262 32.992 4.64528C32.9707 4.61328 32.9174 4.58662 32.8694 4.58662C32.8214 4.58662 32.7414 4.55462 32.6987 4.51195C32.608 4.43195 32.6347 4.43195 29.5734 4.58662C24.3147 4.85862 19.6107 6.30928 15.6267 8.89595C12.9867 10.6079 10.7574 12.8319 8.98672 15.5199C6.71472 18.9599 5.34405 23.0399 4.95472 27.4933C4.86938 28.4693 4.86938 30.8693 4.95472 31.7866C5.21605 34.6453 5.86672 37.4079 6.86405 39.9466C7.61605 41.8613 9.22138 44.8853 10.4694 46.7413C12.5654 49.8613 15.328 52.5706 18.6934 54.7999C24.9974 58.9866 32.0534 60.2719 39.4667 58.5866C44.0214 57.5466 47.8774 55.4026 51.328 51.9786C52.9547 50.3626 54.256 48.7039 55.408 46.7786C55.8134 46.1013 56.9707 43.8026 57.28 43.0666C58.3947 40.3893 59.2534 37.2213 59.5734 34.5919C60.2454 29.0133 59.3334 23.8293 56.7734 18.7093C55.5734 16.3146 54.2934 14.4586 52.496 12.5066C51.4294 11.3493 50.4107 10.4266 48.72 9.09328C48.304 8.76262 46.8427 7.79195 46.1867 7.41328C45.4134 6.96528 43.6107 6.05862 42.72 5.66395C40.8534 4.84795 38.1707 4.02662 36.6934 3.81862C35.9147 3.70662 35.2854 3.66395 35.2427 3.70662ZM33.68 6.42662C33.856 6.74662 34.0854 7.09328 34.192 7.19462C34.544 7.54128 34.992 7.89328 35.088 7.89328C35.3067 7.89328 38.4427 8.71995 39.2374 8.98662C41.824 9.85595 44.944 11.5466 47.0134 13.2106C48.2614 14.2079 50.048 16.0906 51.1787 17.5839C52.464 19.2853 53.2694 20.7093 53.9147 22.4319C54.9227 25.1306 55.3707 27.7173 55.376 30.8799C55.3814 32.8693 55.248 34.2399 54.8747 36.0799C54.192 39.4346 52.5974 42.9279 50.4374 45.7866C48.3627 48.5333 45.5414 50.8266 42.1547 52.5226C40.7894 53.2053 39.3067 53.7919 38.2187 54.0799C34.1867 55.1413 28.5974 54.5706 23.7867 52.6026C20.0427 51.0719 15.9307 47.7919 13.1307 44.1013C10.6987 40.8853 8.99205 36.9386 8.32005 32.9546C8.05338 31.3706 7.98405 30.3733 8.01605 28.5866C8.04272 26.9653 8.09072 26.4799 8.34672 25.0399C8.92272 21.8559 10.2027 19.0133 12.336 16.1599C14.8107 12.8586 18.032 10.1759 21.5734 8.45328C24.3147 7.12528 27.0774 6.35728 29.7494 6.18128C30.6827 6.11728 31.9254 6.17595 32.2347 6.28795C32.3147 6.31995 32.4 6.31462 32.4854 6.27728C32.624 6.20795 32.88 5.73862 33.04 5.25328C33.0667 5.16795 33.104 5.22128 33.216 5.49328C33.296 5.68528 33.504 6.10662 33.68 6.42662Z" fill="black"/>
<path d="M32.2932 11.6799C32.2345 11.7066 32.0852 11.7279 31.9625 11.7279C31.8345 11.7333 31.5839 11.7813 31.4025 11.8346C31.2159 11.8879 30.9492 11.9626 30.7999 11.9946C30.4745 12.0746 30.4265 12.1173 30.2612 12.4319C30.0319 12.8853 29.8399 13.8079 29.5252 15.9199C29.1039 18.7359 28.9652 24.1546 29.2159 27.6799C29.5092 31.6853 29.6052 32.5173 29.8719 33.4773C30.2825 34.9386 31.4399 37.3066 31.9839 37.7973C32.2932 38.0799 32.4745 38.0959 32.7892 37.8719C33.0718 37.6639 33.2425 37.4026 33.6692 36.5333C34.1065 35.6426 34.3998 34.8159 34.6452 33.8133C34.9012 32.7626 34.9332 31.7546 34.7785 29.5999C34.2665 22.5119 34.0425 19.0293 33.9465 16.7199C33.9038 15.6906 33.8398 14.5866 33.8078 14.2666C33.6052 12.1813 33.5998 12.1706 33.3865 12.0533C33.3332 12.0266 33.2265 11.9999 33.1572 11.9999C33.0825 11.9999 32.9225 11.9146 32.7998 11.8133C32.5705 11.6213 32.4799 11.5999 32.2932 11.6799Z" fill="black"/>
<path d="M33.8933 41.7062C33.7759 41.7329 33.5466 41.7755 33.3866 41.8075C32.7946 41.9249 31.8986 42.1809 31.6373 42.3142C31.4933 42.3889 31.3013 42.5382 31.2159 42.6502C30.5813 43.4556 30.4906 44.5649 30.9813 45.5356C31.0666 45.7009 31.1733 45.9676 31.2213 46.1276C31.3279 46.4902 31.8506 47.4502 32.0959 47.7383C32.5226 48.2343 33.2693 48.7143 33.8026 48.8316C34.1439 48.9063 34.2559 48.9116 34.5546 48.8583C35.1999 48.7409 35.5839 48.4156 35.9733 47.6529C36.2719 47.0662 36.3946 46.7516 36.5919 46.0262C36.7253 45.5302 36.7413 45.3756 36.7413 44.6662C36.7466 44.1702 36.7146 43.7276 36.6666 43.5036C36.5066 42.7462 36.1599 42.2289 35.7119 42.0795C35.6053 42.0475 35.3813 41.9355 35.2159 41.8342C34.9386 41.6689 34.8799 41.6529 34.5119 41.6582C34.2879 41.6635 34.0106 41.6849 33.8933 41.7062Z" fill="black"/>
</svg>
